# xmcd
#
# Track frame offsets:
#	150
#	23010
#	40080
#	52915
#	64705
#	81750
#	111826
#	131943
#	151432
#	169306
#	185366
#	208381
#	227411
#	244323
#
# Disc length: 3579 seconds
#
# Revision: 0
# Processed by: cddbd v1.5.2PL0 Copyright (c) Steve Scherf et al.
# Submitted via: dBpowerAMP V4.0
#
DISCID=bd0df90e
DTITLE=Jorma Kaukonen - The Fox Theatre Disc 02
DYEAR=2000
DGENRE=Blues
TTITLE0=01 Hesitation Blues
TTITLE1=02 Been So Long
TTITLE2=03 How Long Blues
TTITLE3=04 Let's Get Together
TTITLE4=05 Candyman
TTITLE5=06 Whinin' Boys Blues
TTITLE6=07 Trial By Fire
TTITLE7=08 Watch The Nord Wind Rise
TTITLE8=09 I Am The Light Of The World
TTITLE9=10 Home Of The Blues
TTITLE10=11 Man's Fate
TTITLE11=12 Never Happen No More
TTITLE12=13 San Fransisco Blues
TTITLE13=14 Police Dog Blues
EXTD=
EXTT0=
EXTT1=
EXTT2=
EXTT3=
EXTT4=
EXTT5=
EXTT6=
EXTT7=
EXTT8=
EXTT9=
EXTT10=
EXTT11=
EXTT12=
EXTT13=
PLAYORDER=
